<svg id="Layer_1" data-name="Layer 1" xmlns="http://www.w3.org/2000/svg" viewBox="0 0 200 86.13"><defs><style>.cls-1{fill:#f89521;}.cls-2{fill:#213d76;}.cls-3{fill:#f4924e;}.cls-4{fill:#231f20;}</style></defs><rect class="cls-1" x="62.26" y="60.71" width="130.58" height="14.31"/><polygon class="cls-1" points="19.17 58.79 19.46 59.83 24.55 57.93 19.17 58.79"/><polygon class="cls-1" points="25.87 60.17 21.66 63.55 22.43 64.31 25.87 60.17"/><polygon class="cls-1" points="26.23 66.45 27.3 66.73 28.16 61.46 26.23 66.45"/><polygon class="cls-1" points="31.68 66.72 32.74 66.44 30.8 61.46 31.68 66.72"/><polygon class="cls-1" points="36.54 64.3 37.31 63.53 33.09 60.17 36.54 64.3"/><polygon class="cls-1" points="39.5 59.81 39.78 58.77 34.41 57.93 39.5 59.81"/><polygon class="cls-1" points="18.01 56.11 18.01 57.18 26.77 56.64 18.01 56.11"/><polygon class="cls-1" points="19.28 61.79 19.83 62.72 27.14 57.96 19.28 61.79"/><polygon class="cls-1" points="23.28 66.09 24.23 66.63 28.13 58.93 23.28 66.09"/><polygon class="cls-1" points="28.94 67.86 30.04 67.86 29.48 59.28 28.94 67.86"/><polygon class="cls-1" points="35.7 66.08 30.83 58.93 34.74 66.62 35.7 66.08"/><polygon class="cls-1" points="39.14 62.71 39.69 61.77 31.82 57.96 39.14 62.71"/><polygon class="cls-1" points="40.94 57.17 40.94 56.09 32.18 56.63 40.94 57.17"/><path class="cls-2" d="M29.46,21.65h0A22.16,22.16,0,0,0,7.3,43.81v1.26H25.13l1.09-1.36h6.49l1.09,1.36H51.62V43.81A22.16,22.16,0,0,0,29.46,21.65Z"/><path class="cls-3" d="M52.47,53.76h-46a3.22,3.22,0,0,1-3.22-3.21h0a3.22,3.22,0,0,1,3.22-3.22h46a3.22,3.22,0,0,1,3.21,3.22h0A3.21,3.21,0,0,1,52.47,53.76Z"/><path class="cls-3" d="M29.93,32.4H29a2.53,2.53,0,0,1-2.47-2l-1.88-9.17a2.52,2.52,0,0,1,2.47-3h4.71a2.53,2.53,0,0,1,2.47,3L32.4,30.39A2.52,2.52,0,0,1,29.93,32.4Z"/><path class="cls-3" d="M43.69,26.82l-4.44,6.75a3.1,3.1,0,0,0,.39,3.91l.82.82a3.12,3.12,0,0,0,3.92.4l5.47-3.6A22.19,22.19,0,0,0,43.69,26.82Z"/><path class="cls-3" d="M14.55,38.7a3.1,3.1,0,0,0,3.91-.4l.82-.82a3.1,3.1,0,0,0,.4-3.91l-4.45-6.75A22.17,22.17,0,0,0,9.08,35.1Z"/><path class="cls-2" d="M51.54,57.47c.06-.48.11-1,.14-1.45H45.57c.2,8.27-7.78,15.74-16.11,14.59a18,18,0,0,0,14.3-10.08A19.19,19.19,0,0,0,45.22,56H43.55a14.16,14.16,0,0,1-28.18,0H7.25c0,.49.08,1,.14,1.45l3.2.56a19.38,19.38,0,0,0,.81,3.06L8.91,63.18a22,22,0,0,0,2.87,4.95L14.83,67a18.79,18.79,0,0,0,2.23,2.23L16,72.3a22.36,22.36,0,0,0,4.95,2.87L23,72.67a18.25,18.25,0,0,0,3.05.81l.56,3.21a21.7,21.7,0,0,0,5.73,0l.56-3.21a18.51,18.51,0,0,0,3-.81L38,75.17A22.36,22.36,0,0,0,43,72.3l-1.12-3.06A18.07,18.07,0,0,0,44.09,67l3.06,1.12A22,22,0,0,0,50,63.18l-2.5-2.09A18.36,18.36,0,0,0,48.33,58Z"/><path class="cls-4" d="M74.42,72.81H69.19V63.43h5.23v1H70.29v3h3.89v.95H70.29v3.47h4.13Z"/><path class="cls-4" d="M87.78,72.81H86.52l-5.11-7.88h0c0,.21,0,.45,0,.72s0,.55,0,.85,0,.61,0,.92v5.39h-1V63.43H81.7l5.09,7.86h0c0-.15,0-.37,0-.64s0-.57,0-.89,0-.62,0-.89V63.43h1Z"/><path class="cls-4" d="M97.17,72.81h-1.1V64.39H93.12v-1h7v1H97.17Z"/><path class="cls-4" d="M110.7,72.81h-5.23V63.43h5.23v1h-4.14v3h3.9v.95h-3.9v3.47h4.14Z"/><path class="cls-4" d="M119.26,63.43a5.48,5.48,0,0,1,1.91.29,2.21,2.21,0,0,1,1.12.87,2.69,2.69,0,0,1,.37,1.48,2.6,2.6,0,0,1-.27,1.25,2.27,2.27,0,0,1-.7.8,3.43,3.43,0,0,1-.93.48l2.57,4.21h-1.27l-2.3-3.91h-2v3.91h-1.09V63.43Zm-.07.94h-1.38V68h1.49a2.55,2.55,0,0,0,1.69-.47,1.75,1.75,0,0,0,.54-1.38,1.55,1.55,0,0,0-.57-1.36A3.17,3.17,0,0,0,119.19,64.37Z"/><path class="cls-4" d="M131.23,63.43a4.06,4.06,0,0,1,2.65.71,2.51,2.51,0,0,1,.84,2,3.23,3.23,0,0,1-.19,1.13,2.32,2.32,0,0,1-.64,1,3.12,3.12,0,0,1-1.14.64,5.47,5.47,0,0,1-1.74.23h-1.14v3.69h-1.09V63.43Zm-.1.93h-1.26v3.83h1a4.91,4.91,0,0,0,1.5-.2,1.62,1.62,0,0,0,.9-.62,2,2,0,0,0,.3-1.15,1.67,1.67,0,0,0-.59-1.4A3.07,3.07,0,0,0,131.13,64.36Z"/><path class="cls-4" d="M143.17,63.43a5.48,5.48,0,0,1,1.91.29,2.21,2.21,0,0,1,1.12.87,2.69,2.69,0,0,1,.38,1.48,2.6,2.6,0,0,1-.27,1.25,2.29,2.29,0,0,1-.71.8,3.43,3.43,0,0,1-.93.48l2.57,4.21H146l-2.3-3.91h-1.95v3.91h-1.09V63.43Zm-.07.94h-1.38V68h1.49a2.55,2.55,0,0,0,1.69-.47,1.76,1.76,0,0,0,.55-1.38,1.55,1.55,0,0,0-.58-1.36A3.17,3.17,0,0,0,143.1,64.37Z"/><path class="cls-4" d="M152.69,72.81V63.43h1.09v9.38Z"/><path class="cls-4" d="M165.6,70.32a2.45,2.45,0,0,1-.41,1.42,2.7,2.7,0,0,1-1.16.9,4.68,4.68,0,0,1-1.75.3,8,8,0,0,1-1,0,5.56,5.56,0,0,1-.88-.15,4.1,4.1,0,0,1-.7-.23V71.46a8.76,8.76,0,0,0,1.18.37,6.26,6.26,0,0,0,1.45.17,3.19,3.19,0,0,0,1.19-.19,1.66,1.66,0,0,0,.75-.54,1.53,1.53,0,0,0,.25-.86,1.48,1.48,0,0,0-.21-.81,2,2,0,0,0-.71-.59,9.05,9.05,0,0,0-1.33-.57A7,7,0,0,1,161.2,68a3,3,0,0,1-.76-.58,2.12,2.12,0,0,1-.47-.74,2.91,2.91,0,0,1-.15-1,2.14,2.14,0,0,1,.38-1.29,2.45,2.45,0,0,1,1.06-.82,4,4,0,0,1,1.55-.28,6,6,0,0,1,1.39.14,6.53,6.53,0,0,1,1.18.37l-.34.94A7.18,7.18,0,0,0,164,64.4a5.06,5.06,0,0,0-1.17-.14,2.79,2.79,0,0,0-1,.17,1.45,1.45,0,0,0-.63.5,1.32,1.32,0,0,0-.22.77,1.49,1.49,0,0,0,.21.82,1.77,1.77,0,0,0,.67.58,9.29,9.29,0,0,0,1.21.53,8.17,8.17,0,0,1,1.41.64,2.5,2.5,0,0,1,.88.82A2.29,2.29,0,0,1,165.6,70.32Z"/><path class="cls-4" d="M176.68,72.81h-5.22V63.43h5.22v1h-4.13v3h3.9v.95h-3.9v3.47h4.13Z"/><path class="cls-4" d="M188,70.32a2.45,2.45,0,0,1-.41,1.42,2.64,2.64,0,0,1-1.16.9,4.68,4.68,0,0,1-1.75.3,8.13,8.13,0,0,1-1,0,5.24,5.24,0,0,1-.87-.15,3.59,3.59,0,0,1-.7-.23V71.46a8.15,8.15,0,0,0,1.17.37,6.26,6.26,0,0,0,1.45.17,3.28,3.28,0,0,0,1.2-.19,1.68,1.68,0,0,0,.74-.54,1.45,1.45,0,0,0,.25-.86,1.48,1.48,0,0,0-.21-.81A2,2,0,0,0,186,69a9.76,9.76,0,0,0-1.34-.57,6.47,6.47,0,0,1-1-.46,3.11,3.11,0,0,1-.77-.58,2.1,2.1,0,0,1-.46-.74,2.67,2.67,0,0,1-.16-1,2.21,2.21,0,0,1,.38-1.29,2.51,2.51,0,0,1,1.06-.82,4,4,0,0,1,1.56-.28,6.12,6.12,0,0,1,1.39.14,6.68,6.68,0,0,1,1.17.37l-.34.94a7.18,7.18,0,0,0-1.08-.35,5.06,5.06,0,0,0-1.17-.14,2.79,2.79,0,0,0-1,.17,1.51,1.51,0,0,0-.63.5,1.39,1.39,0,0,0-.22.77,1.49,1.49,0,0,0,.21.82,1.77,1.77,0,0,0,.67.58,8.92,8.92,0,0,0,1.22.53,8,8,0,0,1,1.4.64,2.41,2.41,0,0,1,.88.82A2.29,2.29,0,0,1,188,70.32Z"/><path class="cls-2" d="M84.85,56.77,83.39,50H74.2l-1.48,6.81H63.3L73,21.16H84.41L94.2,56.77Zm-3-14.37L80.4,35.5c-.16-.76-.34-1.65-.56-2.65s-.42-2-.62-3-.34-1.89-.45-2.63c-.11.73-.25,1.58-.43,2.55s-.36,2-.57,3-.39,1.92-.58,2.75L75.76,42.4Z"/><path class="cls-2" d="M111.44,56.77,105,32h-.18c.06.86.12,1.83.18,2.9s.12,2.15.17,3.25.06,2.16.06,3.16V56.77H97.45V21.23h11.62l6.17,23.29h.16l6.13-23.29h11.6V56.77H125V41.19c0-1,0-2,.06-3.14s.08-2.15.13-3.2.1-2,.16-2.8h-.21l-6.38,24.72Z"/><path class="cls-2" d="M167.88,39a30.92,30.92,0,0,1-.88,7.67,16.29,16.29,0,0,1-2.69,5.77A11.66,11.66,0,0,1,159.72,56a17.56,17.56,0,0,1-13,0,11.85,11.85,0,0,1-4.6-3.62,16.1,16.1,0,0,1-2.74-5.77,30.23,30.23,0,0,1-.9-7.71,26.69,26.69,0,0,1,1.61-9.82A12.84,12.84,0,0,1,145,22.84a16.75,16.75,0,0,1,16.49,0,12.78,12.78,0,0,1,4.82,6.24A27.49,27.49,0,0,1,167.88,39Zm-20.37,0a23.83,23.83,0,0,0,.6,5.77,7.58,7.58,0,0,0,1.87,3.6,4.41,4.41,0,0,0,3.21,1.23,4.51,4.51,0,0,0,3.29-1.21,7.25,7.25,0,0,0,1.81-3.57,25.37,25.37,0,0,0,.56-5.82,19,19,0,0,0-1.32-8,4.47,4.47,0,0,0-4.31-2.75A4.42,4.42,0,0,0,150,29.48a7.78,7.78,0,0,0-1.87,3.64A24.24,24.24,0,0,0,147.51,39Z"/><path class="cls-2" d="M173.28,56.77V21.23h8.61v28h11v7.52Z"/></svg>